# xmcd CD database file
#
# Track frame offsets:
#	150
#	13680
#	30665
#	44862
#	55902
#	70170
#	91725
#	108790
#	127537
#	165962
#
# Disc length: 2570 seconds
#
# Revision: 4
# Processed by: cddbd v1.5.2PL0 Copyright (c) Steve Scherf et al.
# Submitted via: CDex 1.51
#
DISCID=710a080a
DTITLE=B.B.King - Lucille Talks Back
DYEAR=1990
DGENRE=Blues
TTITLE0=Breaking Up Somebody's Home
TTITLE1=Everybody Lies A Little
TTITLE2=I Know The Price
TTITLE3=Lucille Talks Back
TTITLE4=Slow and Easy
TTITLE5=Gambler's Blues
TTITLE6=No Money, No Luck
TTITLE7=Hold On (I Feel Our Love Is Changing)
TTITLE8=To Know You Is To Love You
TTITLE9=I Like To Live The Love
EXTD=YEAR: 1990
EXTT0=
EXTT1=
EXTT2=
EXTT3=
EXTT4=
EXTT5=
EXTT6=
EXTT7=
EXTT8=
EXTT9=
PLAYORDER=
